<svg xmlns="http://www.w3.org/2000/svg" height="156.98" viewBox="0 0 250 156.97942" width="250"><g transform="matrix(1.25 0 0 -1.25 -257.81 574.02)"><g><path d="m38.57 115.78c-6.491 0-6.49 4.99-6.49 10.24 0 5.18-0.001 10.23 6.49 10.23 3.677 0 5.684-1.7 5.684-7h-3.885c-0.052 1.57 0.026 4.04-1.799 4.04-2.216 0-2.502-2.2-2.502-7.27 0-5.08 0.286-7.28 2.502-7.28 1.174 0 1.616 0.99 1.616 3.63h3.859c0.155-4.26-1.46-6.59-5.475-6.59zm41.364 0c-6.442 0-6.674 5.08-6.674 10.07 0 7.52 0.756 10.4 7.379 10.4 1.562 0 4.25-0.44 5.318-0.65v-10.05h-6.074v3.05h2.137v4.39c-0.601 0.22-1.305 0.38-1.956 0.38-2.242 0-2.816-1.1-2.816-7.3 0-3.84 0.002-7.33 2.451-7.33 2.087 0 2.373 1.62 2.346 3.46h3.912c0.233-4.14-2.166-6.42-6.023-6.42zm122.14 0c-6.49 0-6.5 4.99-6.5 10.24 0 5.18 0.01 10.23 6.5 10.23 3.67 0 5.68-1.7 5.68-7h-3.88c-0.06 1.57 0.02 4.04-1.8 4.04-2.22 0-2.51-2.2-2.51-7.27 0-5.08 0.29-7.28 2.51-7.28 1.17 0 1.61 0.99 1.61 3.63h3.86c0.16-4.26-1.46-6.59-5.47-6.59zm-201.19 0.33v19.81h3.832v-15.28h0.0527l3.4414 15.28h3.754l3.623-15.28h0.053v15.28h3.832v-19.81h-6.127l-3.127 13.47h-0.053l-2.9472-13.47h-6.3339zm22.961 0v19.81h3.937v-19.81h-3.937zm24.215 0v19.81h3.935v-8.83h4.512v8.83h3.935v-19.81h-3.935v7.93h-4.512v-7.93h-3.935zm16.966 0v19.81h3.938v-19.81h-3.938zm29.297 0l-5.216 19.81h3.886l1.069-4.39h5.373l1.038 4.39h4.15l-5.112-19.81h-5.188zm13.34 0v19.81h3.68v-14.49h0.05l5.14 14.49h5.19v-19.81h-3.68v13.72h-0.05l-5.01-13.72h-5.32zm25.41 0v19.81h3.84v-15.28h0.05l3.44 15.28h3.75l3.63-15.28h0.05v15.28h3.83v-19.81h-6.12l-3.13 13.47h-0.05l-2.95-13.47h-6.34zm22.97 0v19.81h10.48v-3.04h-6.55v-5.79h5.84v-3.05h-5.84v-4.88h6.34v-3.05h-10.27zm14.28 0v19.81h6.41c6.73 0 6.29-6.97 6.29-10.01 0-6.18-0.97-9.8-6.13-9.8h-6.57zm17.02 0v19.81h3.94v-19.81h-3.94zm24.08 0v19.81h3.94v-19.81h-3.94zm8.45 0v19.81h3.67v-14.49h0.06l5.13 14.49h5.19v-19.81h-3.68v13.72h-0.05l-5-13.72h-5.32zm18.53 0v19.81h10.48v-3.04h-6.54v-5.79h5.84v-3.05h-5.84v-4.88h6.33v-3.05h-10.27zm-64.14 3.05h2.03c2.74 0 2.74 3.21 2.74 6.86 0 4.96-0.47 6.86-2.87 6.86h-1.9v-13.72zm-77.619 0.76h0.05l1.905 8.57h-3.754l1.799-8.57zm116.56 24.91c-0.27 0.2-0.54 0.37-0.8 0.49s-0.69 0.28-1.28 0.47l0.16 0.25-2.82 7.76c-0.14 0.38-0.28 0.66-0.42 0.84s-0.32 0.31-0.54 0.39c-0.21 0.08-0.51 0.13-0.89 0.15v0.56h4.3v-0.56c-0.45-0.03-0.79-0.09-1.04-0.19s-0.37-0.31-0.37-0.64c0-0.16 0.04-0.38 0.12-0.64l0.33-0.91h3.69l0.32 1.07c0.07 0.26 0.11 0.46 0.11 0.62 0 0.26-0.1 0.42-0.3 0.51-0.21 0.08-0.53 0.14-0.97 0.18v0.56h4.9v-0.56c-0.37-0.05-0.66-0.12-0.85-0.22-0.19-0.11-0.34-0.26-0.46-0.48-0.12-0.21-0.26-0.55-0.4-1l-2.32-7.11c-0.18-0.58-0.34-1.1-0.47-1.54zm-12.36 0.36c-0.94 0-1.8 0.23-2.58 0.69-0.79 0.46-1.4 1.11-1.85 1.95-0.46 0.84-0.69 1.8-0.69 2.89 0 0.95 0.21 1.84 0.61 2.67s1 1.51 1.8 2.03c0.8 0.51 1.78 0.77 2.92 0.77 0.63 0 1.19-0.06 1.69-0.18 0.5-0.13 0.91-0.27 1.24-0.44 0.33-0.16 0.7-0.37 1.1-0.61v-0.78c0.01-0.76 0.03-1.28 0.06-1.56 0.04-0.27 0.11-0.46 0.24-0.57 0.12-0.11 0.35-0.17 0.68-0.19v-0.57h-4.21v0.57c0.43 0.04 0.73 0.09 0.9 0.15 0.16 0.06 0.28 0.18 0.35 0.37 0.07 0.18 0.11 0.5 0.13 0.96 0.01 0.24 0 0.43-0.03 0.57-0.04 0.14-0.1 0.28-0.19 0.42-0.46 0.58-1.07 0.87-1.81 0.87-0.66 0-1.23-0.2-1.72-0.6s-0.86-0.94-1.12-1.62c-0.25-0.67-0.38-1.42-0.38-2.24 0-0.97 0.15-1.79 0.44-2.47 0.3-0.68 0.7-1.2 1.21-1.55 0.51-0.34 1.07-0.51 1.69-0.51 0.86 0 1.55 0.25 2.06 0.76 0.59 0.58 1.03 1.29 1.33 2.13l0.43-0.07-0.09-3.28-0.54 0.63c-0.42-0.25-0.79-0.46-1.08-0.61-0.3-0.16-0.67-0.29-1.11-0.41-0.44-0.11-0.93-0.17-1.48-0.17zm-116.8 0c-0.613 0-1.172 0.12-1.674 0.36-0.504 0.25-0.905 0.59-1.207 1.05s-0.453 1.01-0.453 1.64c0 0.88 0.245 1.55 0.735 1.98 0.487 0.44 1.066 0.78 1.734 1.02l0.371 0.14c0.155 0.04 0.246 0.07 0.275 0.09 0.192 0.07 0.401 0.14 0.629 0.24 0.439 0.17 0.823 0.4 1.153 0.67 0.329 0.28 0.494 0.68 0.494 1.19 0 0.53-0.197 0.93-0.59 1.2s-0.892 0.41-1.494 0.41c-0.77 0-1.407-0.22-1.914-0.66-0.508-0.44-0.908-1.1-1.2-1.96l-0.537 0.05 0.235 3.24 0.781-0.55c0.357 0.23 0.743 0.43 1.16 0.59 0.415 0.16 0.935 0.25 1.557 0.25 0.722 0 1.362-0.15 1.92-0.45s0.992-0.7 1.302-1.2c0.311-0.5 0.467-1.06 0.467-1.66 0-0.59-0.142-1.12-0.426-1.58-0.283-0.47-0.645-0.82-1.084-1.08-0.292-0.18-0.794-0.39-1.507-0.62-0.522-0.17-0.942-0.33-1.262-0.48-0.322-0.14-0.591-0.35-0.811-0.6-0.219-0.26-0.328-0.58-0.328-0.96 0-0.41 0.154-0.74 0.465-0.99s0.742-0.37 1.291-0.37c0.878 0 1.558 0.32 2.043 0.96 0.203 0.27 0.35 0.5 0.447 0.7 0.095 0.2 0.188 0.48 0.28 0.84l0.521-0.1-0.342-3.11-0.63 0.46c-0.732-0.47-1.532-0.71-2.401-0.71zm88.223 0.01c-1.13 0-2.09 0.27-2.88 0.79-0.8 0.53-1.4 1.22-1.79 2.07-0.4 0.86-0.6 1.77-0.6 2.75 0 1.02 0.21 1.94 0.64 2.75 0.43 0.82 1.04 1.47 1.83 1.93 0.78 0.47 1.69 0.7 2.73 0.7 0.88 0 1.62-0.15 2.22-0.45s1.06-0.63 1.38-1c0.33-0.36 0.61-0.74 0.85-1.16l-0.61-0.46c-0.27 0.37-0.51 0.68-0.73 0.92-0.22 0.23-0.52 0.44-0.91 0.62s-0.86 0.27-1.42 0.27c-0.78 0-1.44-0.21-1.99-0.62s-0.96-0.96-1.24-1.64-0.42-1.42-0.42-2.21c0-0.88 0.15-1.64 0.45-2.28 0.29-0.64 0.7-1.13 1.21-1.47s1.08-0.5 1.72-0.5c0.48 0 0.91 0.1 1.28 0.32 0.37 0.21 0.67 0.45 0.91 0.7 0.33 0.36 0.58 0.68 0.74 0.96 0.17 0.28 0.29 0.57 0.38 0.88l0.47-0.1-0.05-3.16-0.72 0.65c-0.31-0.24-0.6-0.45-0.88-0.61-0.27-0.17-0.63-0.32-1.07-0.45s-0.94-0.2-1.5-0.2zm-45.42 0.02c-1.08 0-2.02 0.25-2.81 0.74-0.79 0.5-1.4 1.17-1.81 1.99-0.42 0.83-0.62 1.73-0.62 2.7 0 1.09 0.23 2.05 0.71 2.89 0.47 0.83 1.12 1.48 1.95 1.94 0.82 0.47 1.74 0.7 2.75 0.7 0.95 0 1.81-0.22 2.61-0.64 0.8-0.43 1.43-1.05 1.91-1.89 0.47-0.83 0.71-1.83 0.71-2.99 0-1.05-0.23-1.99-0.69-2.82-0.45-0.82-1.09-1.47-1.92-1.93-0.82-0.46-1.75-0.69-2.79-0.69zm-107.61 0.05v0.56c0.421 0.02 0.718 0.09 0.887 0.2s0.275 0.32 0.32 0.64c0.018 0.11 0.03 0.42 0.03 0.92 0.007 0.08 0.013 0.22 0.013 0.41v2.94c0 0.73 0.026 1.33 0.082 1.79 0.055 0.47 0.196 0.92 0.424 1.36 0.229 0.44 0.588 0.82 1.073 1.15 0.731 0.5 1.64 0.74 2.73 0.74 0.767 0 1.582-0.19 2.441-0.58s1.439-1.18 1.743-2.38c0.128-0.55 0.209-1.33 0.246-2.34 0.036-0.82 0.068-1.62 0.095-2.42l0.055-1.18c0.02-0.34 0.062-0.61 0.131-0.78s0.18-0.29 0.336-0.36c0.157-0.07 0.388-0.11 0.699-0.11h0.084v-0.56h-3.992v0.56c0.392 0.04 0.677 0.08 0.855 0.12 0.179 0.04 0.324 0.13 0.432 0.27 0.111 0.15 0.174 0.37 0.193 0.67 0.017 0.23 0.026 0.88 0.026 1.96 0 1.98-0.104 3.32-0.315 4.03-0.384 1.35-1.276 2.02-2.675 2.02-0.868 0-1.503-0.3-1.907-0.89-0.3-0.44-0.492-0.91-0.576-1.41-0.082-0.49-0.123-1.14-0.123-1.94v-2.45c0.009-0.83 0.035-1.37 0.076-1.65 0.041-0.27 0.146-0.45 0.315-0.54s0.509-0.15 1.023-0.19v-0.56h-4.721zm24.928 0v0.56c0.447 0.07 0.744 0.15 0.891 0.24 0.146 0.1 0.237 0.28 0.273 0.55 0.037 0.27 0.059 0.82 0.071 1.63v5.57c-0.011 0.37-0.048 0.65-0.112 0.81-0.064 0.17-0.176 0.29-0.336 0.36s-0.423 0.13-0.787 0.17v0.58h4.32v-0.58c-0.42-0.03-0.714-0.1-0.878-0.2-0.165-0.11-0.266-0.32-0.301-0.63-0.028-0.32-0.043-0.94-0.043-1.86v-4.22c0-0.83 0.02-1.39 0.056-1.66 0.037-0.28 0.128-0.46 0.276-0.55 0.145-0.09 0.442-0.16 0.89-0.21v-0.56h-4.32zm5.555 0v0.56c0.364 0.06 0.633 0.15 0.803 0.26 0.169 0.12 0.317 0.32 0.445 0.59s0.331 0.78 0.603 1.54l2.854 7.72h0.562l3.198-7.6c0.32-0.77 0.554-1.31 0.705-1.61 0.151-0.29 0.316-0.5 0.494-0.63 0.178-0.12 0.441-0.21 0.789-0.27v-0.56h-4.018v0.56c0.438 0.01 0.778 0.06 1.02 0.16 0.242 0.09 0.363 0.3 0.363 0.64 0 0.14-0.099 0.51-0.301 1.11l-1.949 4.99-1.644-4.81c-0.147-0.48-0.242-0.8-0.289-0.96-0.045-0.17-0.069-0.32-0.069-0.45 0-0.2 0.057-0.34 0.166-0.44 0.11-0.09 0.255-0.15 0.438-0.18 0.184-0.03 0.447-0.05 0.795-0.06v-0.56h-4.965zm20.578 0v0.56c0.456 0.05 0.766 0.12 0.926 0.21 0.158 0.09 0.256 0.28 0.293 0.56 0.036 0.3 0.054 0.97 0.054 2.03v3.79c0 0.61-0.003 1.06-0.011 1.34-0.011 0.41-0.043 0.7-0.098 0.87-0.055 0.18-0.164 0.31-0.33 0.38-0.165 0.08-0.442 0.12-0.834 0.15v0.58h4.375v-0.58c-0.431-0.01-0.729-0.07-0.898-0.2-0.171-0.12-0.274-0.35-0.309-0.68-0.038-0.34-0.06-0.96-0.068-1.88v-1.35c0.41 0.01 0.692 0.02 0.841 0.05 0.153 0.03 0.303 0.13 0.448 0.3 0.146 0.17 0.324 0.47 0.535 0.91l0.576 1.22c0.283 0.61 0.578 1.09 0.885 1.44 0.306 0.35 0.671 0.6 1.097 0.76s0.968 0.24 1.625 0.24c0.167 0 0.393-0.01 0.686-0.03v-0.35c-0.293-0.04-0.531-0.11-0.719-0.21-0.187-0.1-0.367-0.26-0.543-0.47-0.174-0.22-0.374-0.53-0.601-0.94l-1.854-3.23c0.668-0.21 1.176-0.58 1.529-1.11 0.351-0.54 0.53-1.09 0.53-1.66 0-0.8-0.263-1.45-0.789-1.95s-1.395-0.75-2.602-0.75h-4.744zm18.586 0v0.56c0.448 0.07 0.743 0.15 0.891 0.24 0.146 0.1 0.237 0.28 0.275 0.55 0.035 0.27 0.06 0.82 0.068 1.63v5.57c-0.009 0.37-0.047 0.65-0.111 0.81-0.064 0.17-0.174 0.29-0.336 0.36-0.159 0.07-0.423 0.13-0.787 0.17v0.58h4.32v-0.58c-0.422-0.03-0.714-0.1-0.877-0.2-0.166-0.11-0.266-0.32-0.304-0.63-0.026-0.32-0.041-0.94-0.041-1.86v-4.22c0-0.83 0.019-1.39 0.054-1.66 0.038-0.28 0.13-0.46 0.278-0.55 0.146-0.09 0.442-0.16 0.89-0.21v-0.56h-4.32zm16.341 0v0.58c0.36 0.03 0.62 0.06 0.77 0.11 0.15 0.04 0.29 0.13 0.41 0.27s0.32 0.42 0.6 0.84l2.79 4.29v1.84c-0.01 0.62-0.03 1.03-0.05 1.21s-0.1 0.33-0.22 0.44c-0.09 0.09-0.21 0.15-0.37 0.19s-0.48 0.08-0.96 0.14v0.56h5.16v-0.56c-0.55-0.04-0.92-0.1-1.12-0.2-0.19-0.09-0.32-0.26-0.37-0.51s-0.07-0.73-0.07-1.43v-2.19l1.62-2.71c0.43-0.69 0.76-1.2 1-1.5s0.46-0.5 0.68-0.61 0.51-0.17 0.88-0.18v-0.58h-4.09v0.58c0.32 0.03 0.55 0.05 0.69 0.07 0.14 0.03 0.25 0.07 0.34 0.15 0.08 0.07 0.13 0.18 0.13 0.34 0 0.18-0.14 0.53-0.42 1.06l-1.48 2.6-1.59-2.62c-0.16-0.26-0.28-0.47-0.35-0.62-0.08-0.15-0.11-0.29-0.11-0.42 0-0.23 0.11-0.37 0.33-0.44 0.22-0.06 0.64-0.1 1.26-0.12v-0.58h-5.46zm27.71 0v0.56c0.43 0.05 0.72 0.11 0.88 0.18 0.15 0.06 0.25 0.21 0.31 0.44 0.05 0.27 0.08 0.9 0.08 1.89v3.68c0 0.85-0.01 1.45-0.03 1.8-0.01 0.39-0.04 0.67-0.1 0.84s-0.16 0.29-0.32 0.35-0.43 0.12-0.82 0.15v0.58h4.33v-0.58c-0.39-0.03-0.67-0.09-0.82-0.15-0.16-0.06-0.26-0.18-0.32-0.35-0.05-0.17-0.09-0.45-0.09-0.84v-2.99h1.15c0.44 0 0.78 0.02 1.03 0.08 0.25 0.05 0.45 0.17 0.59 0.36 0.14 0.18 0.23 0.46 0.24 0.83h0.51v-3.44h-0.51c-0.01 0.38-0.07 0.66-0.17 0.83-0.09 0.17-0.25 0.28-0.46 0.33s-0.55 0.07-1.01 0.07h-1.37v-3.62c0.33-0.03 0.78-0.05 1.34-0.05 0.77 0 1.32 0.02 1.66 0.07s0.6 0.19 0.8 0.42c0.19 0.22 0.33 0.6 0.42 1.13h0.52l-0.16-2.57h-7.68zm28.64 0v0.56c0.45 0.07 0.74 0.15 0.89 0.24 0.15 0.1 0.24 0.28 0.27 0.55 0.04 0.27 0.07 0.82 0.07 1.63v5.57c0 0.37-0.04 0.65-0.11 0.81-0.06 0.17-0.17 0.29-0.33 0.36s-0.42 0.13-0.79 0.17v0.58h4.32v-0.58c-0.42-0.03-0.71-0.1-0.88-0.2-0.16-0.11-0.26-0.32-0.3-0.63-0.03-0.32-0.04-0.94-0.04-1.86v-4.22c0-0.83 0.02-1.39 0.05-1.66 0.04-0.28 0.13-0.46 0.28-0.55 0.14-0.09 0.44-0.16 0.89-0.21v-0.56h-4.32zm28.88 0v0.56c0.45 0.07 0.74 0.15 0.89 0.24 0.14 0.1 0.23 0.28 0.27 0.55s0.06 0.82 0.07 1.63v5.57c-0.01 0.37-0.05 0.65-0.11 0.81-0.06 0.17-0.17 0.29-0.34 0.36-0.15 0.07-0.42 0.13-0.78 0.17v0.58h4.32v-0.58c-0.42-0.03-0.72-0.1-0.88-0.2-0.17-0.11-0.27-0.32-0.3-0.63-0.03-0.32-0.05-0.94-0.05-1.86v-4.22c0-0.83 0.02-1.39 0.06-1.66 0.04-0.28 0.13-0.46 0.28-0.55 0.14-0.09 0.44-0.16 0.89-0.21v-0.56h-4.32zm-158.73 0.02v0.56c0.347 0.03 0.615 0.08 0.803 0.17 0.187 0.09 0.428 0.26 0.72 0.53l-0.029 1.44c-0.046 3.97-0.108 6.16-0.191 6.54-0.036 0.19-0.099 0.33-0.192 0.42-0.091 0.09-0.212 0.14-0.363 0.17-0.151 0.02-0.401 0.04-0.748 0.06v0.56h4.265v-0.56c-0.585-0.07-0.982-0.14-1.191-0.22-0.212-0.07-0.351-0.23-0.42-0.46-0.068-0.22-0.103-0.64-0.103-1.23v-5.42l4.144 5.09 1.412 1.77 0.934 1.17h0.631l0.136-8.09c0.008-0.61 0.041-1.04 0.096-1.29 0.057-0.25 0.164-0.42 0.328-0.51 0.165-0.08 0.445-0.13 0.84-0.14v-0.56h-4.117v0.56c0.596 0.02 1 0.06 1.215 0.14 0.215 0.07 0.349 0.21 0.404 0.43 0.056 0.21 0.088 0.63 0.096 1.24v4.68l-2.922-3.62c-0.732-0.91-1.231-1.54-1.496-1.89s-0.636-0.87-1.112-1.54h-3.14zm29.273 0v0.56c0.43 0.04 0.724 0.09 0.879 0.16 0.154 0.06 0.262 0.21 0.317 0.44 0.053 0.27 0.08 0.9 0.08 1.89v3.68c0 0.87-0.008 1.47-0.028 1.8-0.009 0.4-0.042 0.68-0.101 0.85-0.06 0.16-0.17 0.28-0.33 0.34-0.16 0.07-0.433 0.12-0.817 0.15v0.58h7.971 0.002c0-0.65 0.075-1.55 0.23-2.7h-0.507c-0.109 0.58-0.293 1-0.549 1.25s-0.544 0.4-0.864 0.45c-0.32 0.04-0.823 0.07-1.509 0.07-0.659 0-1.102-0.09-1.33-0.25-0.229-0.16-0.344-0.43-0.344-0.8v-2.93h1.125c0.466 0 0.813 0.03 1.037 0.08 0.224 0.06 0.384 0.17 0.48 0.35s0.143 0.47 0.143 0.86h0.508v-3.46h-0.508c-0.037 0.34-0.097 0.59-0.186 0.76-0.085 0.17-0.239 0.29-0.459 0.37-0.219 0.07-0.553 0.1-1.001 0.1h-1.139v-3.67h1.291c0.66 0 1.153 0.03 1.482 0.09 0.328 0.07 0.586 0.21 0.774 0.43 0.187 0.22 0.317 0.56 0.39 1.03h0.483l-0.057-2.48h-7.463zm33.528 0l-0.084 2.92h0.548c0.026-0.57 0.118-0.98 0.27-1.24 0.149-0.25 0.345-0.41 0.588-0.48 0.242-0.06 0.589-0.09 1.037-0.09h1.467v7.69c0 0.43-0.09 0.74-0.268 0.92s-0.501 0.28-0.969 0.29v0.44h4.333v-0.44c-0.47-0.01-0.8-0.11-0.97-0.29s-0.26-0.49-0.26-0.92v-7.69h1.47c0.44 0 0.79 0.03 1.03 0.09 0.25 0.07 0.44 0.23 0.59 0.48 0.15 0.26 0.24 0.67 0.27 1.24h0.55l-0.08-2.92h-9.522zm52.222 0v0.56c0.35 0.01 0.59 0.03 0.74 0.07s0.25 0.14 0.31 0.29 0.09 0.41 0.09 0.76c0 0.59-0.01 0.99-0.01 1.22l-0.16 4.38c-0.01 0.78-0.04 1.36-0.08 1.74-0.03 0.34-0.14 0.56-0.31 0.67-0.17 0.12-0.47 0.18-0.92 0.2v0.56h3.63v-0.56c-0.38-0.03-0.66-0.08-0.82-0.15-0.17-0.08-0.27-0.2-0.33-0.36-0.05-0.17-0.08-0.43-0.08-0.8l0.08-6.14 3.36 8.15h0.92l3.65-8.04v5.25c-0.01 0.72-0.03 1.21-0.07 1.45s-0.14 0.4-0.3 0.48c-0.17 0.08-0.49 0.13-0.96 0.16v0.56h4.58v-0.56c-0.44-0.04-0.74-0.12-0.9-0.24-0.16-0.13-0.26-0.38-0.29-0.75-0.04-0.48-0.06-1.19-0.06-2.14v-4.31c-0.01-0.6 0.01-1.01 0.05-1.23s0.14-0.37 0.3-0.45 0.46-0.13 0.9-0.16v-0.61h-3.18l-3.6 7.94-3.25-7.94h-3.29zm31.14 0v0.56c0.44 0.04 0.74 0.1 0.89 0.2 0.16 0.09 0.25 0.29 0.28 0.58 0.03 0.22 0.05 0.78 0.05 1.69v4.39c0 0.49 0 0.86-0.01 1.11 0 0.38-0.02 0.65-0.06 0.81s-0.15 0.29-0.31 0.37c-0.17 0.09-0.45 0.15-0.84 0.18v0.56h4.47v-0.56c-0.5-0.06-0.83-0.13-0.99-0.21s-0.26-0.26-0.31-0.53-0.07-0.8-0.08-1.58v-1.92l0.37-0.02c0.8-0.04 1.51-0.07 2.14-0.07 0.24 0 0.6 0.01 1.06 0.03l0.49 0.02 0.82 0.04v1.92c0 0.77-0.01 1.25-0.03 1.45-0.03 0.24-0.09 0.41-0.18 0.52-0.08 0.1-0.2 0.18-0.38 0.22-0.17 0.04-0.46 0.08-0.86 0.13v0.56h4.54v-0.56c-0.42-0.04-0.7-0.11-0.86-0.2s-0.26-0.26-0.29-0.53c-0.05-0.34-0.07-1.02-0.07-2.05v-4.41c0-0.73 0.01-1.22 0.05-1.46 0.04-0.25 0.13-0.41 0.27-0.48 0.15-0.08 0.45-0.15 0.9-0.2v-0.56h-4.54v0.56c0.51 0.04 0.85 0.11 1.03 0.2 0.18 0.08 0.29 0.25 0.34 0.49 0.04 0.24 0.07 0.71 0.08 1.42v1.75c-0.89 0.06-1.71 0.09-2.48 0.09-0.71 0-1.51-0.03-2.4-0.09v-1.43c0-0.89 0.02-1.47 0.08-1.73 0.04-0.19 0.1-0.33 0.18-0.42 0.09-0.09 0.21-0.15 0.37-0.18 0.15-0.03 0.41-0.06 0.75-0.1v-0.56h-4.47zm40.64 0v0.56c0.35 0.03 0.62 0.08 0.81 0.17s0.43 0.26 0.72 0.53l-0.03 1.44c-0.04 3.98-0.11 6.16-0.19 6.54-0.04 0.19-0.1 0.33-0.19 0.42-0.1 0.09-0.22 0.14-0.37 0.17-0.15 0.02-0.4 0.04-0.75 0.06v0.56h4.27v-0.56c-0.58-0.07-0.98-0.14-1.19-0.22-0.21-0.07-0.35-0.23-0.42-0.46-0.07-0.22-0.1-0.64-0.1-1.23v-5.42l4.14 5.09 1.41 1.77 0.94 1.17h0.63l0.13-8.09c0.01-0.61 0.04-1.04 0.1-1.29 0.05-0.25 0.16-0.42 0.33-0.51 0.16-0.08 0.44-0.13 0.84-0.14v-0.56h-4.12v0.56c0.59 0.02 1 0.06 1.21 0.14 0.22 0.07 0.35 0.21 0.41 0.43 0.05 0.21 0.09 0.63 0.1 1.24v4.68l-2.93-3.62c-0.73-0.91-1.23-1.54-1.49-1.89-0.27-0.35-0.64-0.87-1.11-1.54h-3.15zm-91.64 0.9c0.68-0.02 1.31 0.27 1.88 0.85 0.78 0.85 1.17 2.09 1.17 3.72 0 0.63-0.06 1.19-0.18 1.68s-0.34 0.98-0.66 1.47c-0.3 0.45-0.63 0.78-0.99 0.98-0.37 0.2-0.73 0.3-1.09 0.31-0.34 0-0.7-0.09-1.07-0.28s-0.71-0.5-1.02-0.94c-0.37-0.52-0.62-1.05-0.76-1.6-0.14-0.54-0.2-1.18-0.2-1.91 0-1.43 0.36-2.55 1.08-3.36 0.55-0.61 1.16-0.92 1.84-0.92zm-52.857 0.02c0.906 0 1.552 0.21 1.942 0.63 0.389 0.42 0.567 0.96 0.541 1.63-0.02 0.28-0.123 0.56-0.315 0.83-0.192 0.28-0.447 0.5-0.767 0.68-0.322 0.17-0.675 0.26-1.059 0.26-0.356 0-0.681-0.04-0.972-0.11v-3.87c0.181-0.04 0.393-0.05 0.63-0.05zm137.85 1.12l1.47 4.35h-3l1.53-4.35z" transform="matrix(.8 0 0 -.8 206.25 459.21)" fill="#00274c"/><path d="m305.89 392.55-22.824 31.179v-22.686h9.0769v-22.386h-41.985v22.386h8.5136v34.873h-8.5136v22.407h32.989l22.756-31.401 22.755 31.401h32.965v-22.407h-8.5026v-34.873h8.5026v-22.386h-41.985v22.386h9.0854v22.686l-22.833-31.179" fill="#ffcb05"/></g></g></svg>
